<svg width="301" height="301" viewBox="0 0 301 301" fill="none" xmlns="http://www.w3.org/2000/svg">
<path d="M75.525 0.853466C65.4303 0.493205 54.7983 2.36761 44.4289 7.00819C37.7324 9.98855 36.1355 18.7585 41.3351 23.9355L69.5593 52.0861L65.1228 64.2769L52.6321 68.7134L24.2596 40.4138C19.1353 35.3046 10.5145 36.8212 7.44324 43.4017C-4.36251 68.6075 -0.207758 97.8849 18.7021 116.777C35.8886 133.916 60.5282 136.131 82.942 129.306L171.68 218.044C164.848 240.464 167.067 265.138 184.209 282.322C203.101 301.237 232.381 305.387 257.585 293.581C264.142 290.515 265.677 281.853 260.567 276.729L232.268 248.357L236.667 235.903L248.895 231.429L277.046 259.691C282.221 264.886 290.985 263.276 293.973 256.559C306.346 228.907 298.992 199.534 282.304 182.848C265.157 165.674 240.485 163.245 218.099 170.319L160.945 113.202L130.671 82.9273C137.75 60.5405 135.314 35.8333 118.142 18.6848C107.712 8.2521 92.3494 1.46274 75.5253 0.862943L75.525 0.853466ZM67.8437 20.9126C81.0677 20.5523 96.5967 26.6617 103.376 33.4413H103.414C116.058 46.0655 118.339 65.1998 110.423 82.583C108.621 86.5359 109.475 91.2066 112.549 94.2901L206.692 188.433C209.773 191.514 214.451 192.335 218.399 190.554C235.782 182.641 254.917 184.919 267.541 197.568L267.579 197.606C274.356 204.38 280.438 219.917 280.107 233.139L258.965 211.921C256.088 209.034 251.815 208.046 247.966 209.498L224.848 217.998C221.921 219.081 219.616 221.396 218.585 224.339L210.42 247.64C209.095 251.414 210.025 255.616 212.844 258.453L233.797 279.445C221.47 280.374 207.48 276.026 199.01 267.551C186.496 255.017 184.337 235.904 192.001 218.185C193.704 214.252 192.85 209.695 189.839 206.664L142.9 159.722L94.3544 111.177C91.3262 108.161 86.7563 107.31 82.8338 109.013C65.1152 116.674 45.9686 114.525 33.4321 102.007C24.9646 93.539 20.6138 79.5469 21.5387 67.2194L42.5298 88.1724C45.369 91.0016 49.5513 91.9539 53.3429 90.596L76.6823 82.3929C79.6299 81.3827 81.9426 79.0598 83.0209 76.1299L91.4832 53.0505C92.8815 49.2261 91.9065 44.9254 89.0218 42.0509L67.8444 20.9115L67.8437 20.9126Z" fill="#C7A28B"/>
</svg>
