<svg width="16" height="15" viewBox="0 0 16 15" fill="none" xmlns="http://www.w3.org/2000/svg">
<path d="M14.6667 10.7802V12.7802C14.6675 12.9659 14.6294 13.1497 14.555 13.3198C14.4807 13.4899 14.3716 13.6426 14.2348 13.7681C14.0979 13.8937 13.9364 13.9892 13.7605 14.0487C13.5847 14.1082 13.3983 14.1303 13.2134 14.1136C11.1619 13.8907 9.19137 13.1897 7.46004 12.0669C5.84926 11.0433 4.48359 9.67767 3.46004 8.06689C2.33336 6.3277 1.6322 4.34756 1.41337 2.28689C1.39671 2.10254 1.41862 1.91673 1.4777 1.74131C1.53679 1.56589 1.63175 1.40469 1.75655 1.26797C1.88134 1.13126 2.03324 1.02203 2.20256 0.947242C2.37189 0.87245 2.55493 0.833735 2.74004 0.833561H4.74004C5.06357 0.830376 5.37723 0.944946 5.62254 1.15592C5.86786 1.36689 6.02809 1.65986 6.07337 1.98023C6.15779 2.62027 6.31434 3.24871 6.54004 3.85356C6.62973 4.09218 6.64915 4.3515 6.59597 4.60081C6.5428 4.85012 6.41928 5.07897 6.24004 5.26023L5.39337 6.10689C6.34241 7.77592 7.72434 9.15786 9.39337 10.1069L10.24 9.26023C10.4213 9.08098 10.6501 8.95746 10.8994 8.90429C11.1488 8.85112 11.4081 8.87053 11.6467 8.96023C12.2516 9.18593 12.88 9.34248 13.52 9.42689C13.8439 9.47258 14.1396 9.6357 14.3511 9.88522C14.5625 10.1347 14.6748 10.4533 14.6667 10.7802Z" stroke="white" stroke-linecap="round" stroke-linejoin="round"/>
</svg>
