<svg width="18" height="18" viewBox="0 0 18 18" fill="none" xmlns="http://www.w3.org/2000/svg">
<path d="M16.5001 12.6903V14.9403C16.5009 15.1492 16.4581 15.3559 16.3745 15.5473C16.2908 15.7387 16.168 15.9105 16.0141 16.0517C15.8602 16.1929 15.6785 16.3004 15.4806 16.3673C15.2828 16.4343 15.0731 16.4591 14.8651 16.4403C12.5572 16.1895 10.3403 15.4009 8.39257 14.1378C6.58044 12.9863 5.04407 11.4499 3.89257 9.63782C2.62506 7.68122 1.83625 5.45356 1.59007 3.13532C1.57133 2.92792 1.59598 2.71889 1.66245 2.52154C1.72892 2.32418 1.83575 2.14283 1.97615 1.98903C2.11654 1.83523 2.28743 1.71235 2.47792 1.62821C2.6684 1.54407 2.87433 1.50051 3.08257 1.50032H5.33257C5.69655 1.49673 6.04942 1.62563 6.32539 1.86297C6.60137 2.10031 6.78163 2.4299 6.83257 2.79032C6.92754 3.51037 7.10366 4.21736 7.35757 4.89782C7.45848 5.16626 7.48032 5.458 7.4205 5.73848C7.36069 6.01895 7.22172 6.2764 7.02007 6.48032L6.06757 7.43282C7.13524 9.31047 8.68991 10.8651 10.5676 11.9328L11.5201 10.9803C11.724 10.7787 11.9814 10.6397 12.2619 10.5799C12.5424 10.5201 12.8341 10.5419 13.1026 10.6428C13.783 10.8967 14.49 11.0728 15.2101 11.1678C15.5744 11.2192 15.9071 11.4027 16.145 11.6834C16.3828 11.9642 16.5092 12.3225 16.5001 12.6903Z" stroke="#C7A28B" stroke-width="1.5" stroke-linecap="round" stroke-linejoin="round"/>
</svg>
