<?xml version="1.0" standalone="no"?>
<!DOCTYPE svg PUBLIC "-//W3C//DTD SVG 20010904//EN"
 "http://www.w3.org/TR/2001/REC-SVG-20010904/DTD/svg10.dtd">
<svg version="1.0" xmlns="http://www.w3.org/2000/svg"
 width="70.000000pt" height="70.000000pt" viewBox="0 0 70.000000 70.000000"
 preserveAspectRatio="xMidYMid meet">
<metadata>
Created by potrace 1.14, written by Peter Selinger 2001-2017
</metadata>
<g transform="translate(0.000000,70.000000) scale(0.100000,-0.100000)"
fill="#000000" stroke="none">
<path d="M0 350 l0 -350 350 0 350 0 0 350 0 350 -350 0 -350 0 0 -350z m445
195 l0 -59 -34 -7 c-73 -15 -129 -89 -117 -154 12 -60 85 -130 110 -105 8 9 6
15 -8 24 -76 44 -89 115 -32 172 39 39 86 47 86 15 0 -12 -9 -22 -22 -27 -35
-10 -58 -34 -58 -60 0 -23 42 -64 66 -64 10 0 14 -16 14 -60 0 -57 -1 -60 -24
-60 -34 0 -87 24 -119 54 -53 49 -71 132 -43 199 15 38 76 94 111 103 16 4 25
13 25 25 0 16 -4 17 -25 9 -106 -40 -155 -106 -155 -210 0 -105 75 -190 183
-208 33 -6 43 -12 45 -30 4 -27 -13 -28 -87 -6 -96 28 -176 123 -188 223 -13
113 74 240 187 273 82 24 85 23 85 -47z"/>
</g>
</svg>
