<svg width="80" height="80" viewBox="0 0 80 80" fill="none" xmlns="http://www.w3.org/2000/svg">
<path fill-rule="evenodd" clip-rule="evenodd" d="M15.1576 24.9923C12.6055 26.3114 12.1578 29.5045 14.1601 31.5369L26.7385 43.1494C27.5124 44.8468 28.4903 46.723 29.104 48.4684C31.4273 55.0477 38.8325 59.4453 44.5822 61.5817C45.1779 61.7758 45.6487 61.9006 45.9586 61.9823L49.5984 65.3633L51.6125 67.2347L51.6824 67.2996L52.2171 67.7953C52.7416 68.3183 53.5901 68.3592 54.1494 67.8876L66.6222 57.328C67.2504 56.7675 67.3401 55.8484 66.7265 55.2359C61.5684 50.0889 60.2475 37.0051 54.0809 29.3791C53.1881 27.778 52.1806 26.5177 51.6364 25.1247C50.3111 21.7196 50.0247 18.4733 48.6366 14.8314C47.9266 12.9562 46.6119 11.6589 44.0122 12.6413C41.1694 13.7109 40.387 16.7228 40.2312 19.0858L29.4059 11.2506C27.0404 9.40057 23.0699 9.37937 22.2361 12.7152C18.5217 11.6384 15.3695 15.2891 17.1975 18.9002C14.7788 19.977 13.9297 22.6208 15.1576 24.9923ZM47.9339 23.6469C45.8425 22.1869 44.0453 21.3298 43.0405 20.9092C42.9105 19.416 42.8696 16.0915 45.0092 15.2853C45.5383 15.0884 45.8246 15.4 45.9883 15.8319C46.4028 17.0643 46.6233 18.2588 46.8413 19.4401C47.101 20.8472 47.3572 22.2356 47.9339 23.6469ZM27.7432 13.5355C29.4059 14.7393 40.596 23.1055 41.4187 23.2979C46.4275 25.0892 48.3174 27.737 51.9231 31.1881C57.818 38.5506 58.2378 47.9924 63.7941 56.0166L53.2748 64.9242L47.6103 59.6607C47.5593 59.6125 46.9227 59.3043 46.9227 59.3043C46.8911 59.2999 34.9362 56.6706 31.7357 47.4312C31.0884 45.5526 30.0275 43.5572 29.1936 41.7301C29.1757 41.6859 28.9118 41.3184 28.9118 41.3184C25.6783 38.09 20.0433 32.6441 16.5308 29.8665C14.7122 28.3175 16.4943 26.7271 17.841 27.7559C20.9254 30.1071 31.7357 40.1928 31.7654 40.2185C33.1535 41.4516 35.0359 39.3414 33.6495 38.1079C29.9321 34.9948 21.8381 27.47 18.9101 25.0891C15.8727 22.7105 18.1647 20.2966 20.3015 21.957L35.391 34.8762C36.8004 36.0796 38.6385 33.9376 37.2296 32.7303C33.6425 29.6574 24.5073 21.4821 21.0412 19.0933C17.9092 16.7046 20.19 14.242 22.3599 15.9057L39.1781 29.828C40.6042 31.0124 42.42 28.8401 40.9876 27.6513L25.2869 14.6655C23.9549 12.4474 26.4627 12.514 27.7432 13.5355Z" fill="#C7A28B"/>
<path d="M48.8826 69.6714L51.6824 67.2996L49.5991 65.3644L48.0092 66.7093L44.4855 63.3359C44.4323 63.2867 43.7968 62.9785 43.7968 62.9785C43.7666 62.975 31.8107 60.3447 28.6097 51.1076C27.963 49.2263 26.9022 47.2326 26.0683 45.4055C26.0509 45.3596 25.7853 44.9921 25.7853 44.9921C22.5512 41.7636 19.9918 38.9258 16.4792 36.1482C15.1881 35.045 15.7154 33.9267 16.6093 33.7377L14.3851 31.736C12.4887 33.2347 12.3127 35.9961 14.1088 37.8192C18.3763 41.6328 19.4708 42.878 23.6121 46.823C24.3865 48.5204 25.3656 50.3966 25.9793 52.142C28.3012 58.7202 35.7064 63.1195 41.4561 65.2553L42.833 65.6564L46.952 69.5791C47.4765 70.1022 48.325 70.143 48.8826 69.6714Z" fill="white"/>
</svg>
